<?xml version="1.0" encoding="UTF-8"?>
<svg id="Layer_1" data-name="Layer 1" xmlns="http://www.w3.org/2000/svg" viewBox="0 0 484.02 165.23">
  <defs>
    <style>
      .cls-1 {
        fill: #c1272d;
      }

      .cls-1, .cls-2, .cls-3 {
        stroke-width: 0px;
      }

      .cls-2 {
        fill: #333;
      }

      .cls-3 {
        fill: #fff;
      }
    </style>
  </defs>
  <rect class="cls-2" x="392.95" y="73.88" width="91.07" height="91.07" rx="14.12" ry="14.12"/>
  <rect class="cls-2" x="98.31" y="73.88" width="91.07" height="91.07" rx="14.12" ry="14.12"/>
  <rect class="cls-2" x="293.47" y="73.52" width="91.07" height="91.07" rx="14.12" ry="14.12"/>
  <rect class="cls-2" x="195.89" y="73.52" width="91.07" height="91.07" rx="14.12" ry="14.12"/>
  <path class="cls-1" d="m0,117.98v-35.65c0-5.3,4.3-9.6,9.6-9.6h.3c5.3,0,9.6,4.3,9.6,9.6v34.9c0,21.6,9.75,30.9,26.7,30.9s26.55-9.3,26.55-30.9v-34.9c0-5.3,4.3-9.6,9.6-9.6h0c5.3,0,9.6,4.3,9.6,9.6v35.65c0,30.6-17.25,47.25-45.9,47.25S0,148.58,0,117.98Z"/>
  <path class="cls-3" d="m199.58,118.98c0-23.53,17.65-40.15,41.76-40.15s41.91,16.62,41.91,40.15-17.5,40.29-41.91,40.29-41.76-16.76-41.76-40.29Zm65.15,0c0-15-10-24.56-23.38-24.56s-23.23,9.56-23.23,24.56,10,24.56,23.23,24.56,23.38-9.56,23.38-24.56Z"/>
  <path class="cls-3" d="m302.87,118.15c0-23.53,17.65-40.15,42.5-40.15,11.1,0,20.58,3.33,27.24,9.71,3.97,3.8,3.13,10.36-1.61,13.13l-.11.07c-3.26,1.9-7.32,1.29-10.05-1.3-4.34-4.12-9.77-6.02-15.61-6.02-13.53,0-23.82,9.41-23.82,24.56s10.29,24.56,23.82,24.56c5.85,0,11.28-1.9,15.61-6.02,2.74-2.6,6.8-3.2,10.05-1.3l.09.05c4.74,2.76,5.58,9.31,1.62,13.11-6.67,6.4-16.14,9.89-27.23,9.89-24.85,0-42.5-16.76-42.5-40.29Z"/>
  <path class="cls-3" d="m436.26,126.93l-12.12,11.47c-.28.27-.44.64-.44,1.03v11.06c0,5-4.06,9.06-9.06,9.06h0c-5.15,0-9.32-4.17-9.32-9.32v-64.48c0-4.88,3.96-8.84,8.84-8.84h0c5.27,0,9.54,4.27,9.54,9.54v26.62c0,1.24,1.48,1.88,2.38,1.04l32.13-29.78c2.29-2.13,5.31-3.31,8.44-3.31h0c6.36,0,9.55,7.68,5.06,12.18l-19.78,19.87c-.51.51-.55,1.32-.11,1.88l25.92,32.93c3.72,4.73.35,11.67-5.67,11.67h0c-4.74,0-9.23-2.14-12.21-5.83l-21.53-26.65c-.52-.64-1.48-.71-2.08-.14Z"/>
  <path class="cls-2" d="m275.4,34.32v25.89c0,3.85-3.12,6.97-6.97,6.97h-.22c-3.85,0-6.97-3.12-6.97-6.97v-25.35c0-15.69-7.08-22.44-19.39-22.44s-19.28,6.75-19.28,22.44v25.35c0,3.85-3.12,6.97-6.97,6.97h0c-3.85,0-6.97-3.12-6.97-6.97v-25.89c0-22.22,12.53-34.32,33.33-34.32s33.44,12.09,33.44,34.32Z"/>
  <circle class="cls-2" cx="35.74" cy="67.18" r="6.51"/>
  <circle class="cls-2" cx="56.21" cy="67.18" r="6.51"/>
  <path class="cls-3" d="m119.51,82.75h2.65c4.03,0,7.29,3.26,7.29,7.29v44.16c0,4.03,3.26,7.29,7.29,7.29h36.56c4.03,0,7.29,3.26,7.29,7.29h0c0,4.03-3.26,7.29-7.29,7.29h-53.8c-4.03,0-7.29-3.26-7.29-7.29v-58.74c0-4.03,3.26-7.29,7.29-7.29Z"/>
</svg>